<mxfile host="app.diagrams.net" modified="2023-02-02T05:05:43.216Z" agent="5.0 (X11; Linux x86_64) AppleWebKit/537.36 (KHTML, like Gecko) Chrome/108.0.0.0 Safari/537.36" etag="tv8R4oF62GTraHfub_C0" version="20.8.14" type="github">
  <diagram name="系統開發流程" id="mCIZsBK1J4OM7ZNtnRXF">
    <mxGraphModel dx="1600" dy="775" grid="1" gridSize="10" guides="1" tooltips="1" connect="1" arrows="1" fold="1" page="1" pageScale="1" pageWidth="827" pageHeight="1169" math="0" shadow="0">
      <root>
        <mxCell id="0" />
        <mxCell id="1" parent="0" />
        <mxCell id="_cTSjQU-mbcuw32wQxp6-2" value="&lt;font style=&quot;font-size: 24px;&quot;&gt;單個agv調度&lt;/font&gt;" style="rounded=1;whiteSpace=wrap;html=1;" vertex="1" parent="1">
          <mxGeometry x="150" y="160" width="180" height="60" as="geometry" />
        </mxCell>
        <mxCell id="_cTSjQU-mbcuw32wQxp6-4" value="" style="rounded=0;whiteSpace=wrap;html=1;" vertex="1" parent="1">
          <mxGeometry x="480" y="180" width="310" height="530" as="geometry" />
        </mxCell>
        <mxCell id="_cTSjQU-mbcuw32wQxp6-5" value="&lt;font style=&quot;font-size: 36px;&quot;&gt;模擬器&lt;/font&gt;" style="text;html=1;strokeColor=none;fillColor=none;align=center;verticalAlign=middle;whiteSpace=wrap;rounded=0;" vertex="1" parent="1">
          <mxGeometry x="575" y="190" width="120" height="30" as="geometry" />
        </mxCell>
        <mxCell id="_cTSjQU-mbcuw32wQxp6-6" value="&lt;font style=&quot;font-size: 24px;&quot;&gt;地圖管理&lt;/font&gt;" style="rounded=1;whiteSpace=wrap;html=1;" vertex="1" parent="1">
          <mxGeometry x="530" y="285" width="230" height="60" as="geometry" />
        </mxCell>
        <mxCell id="_cTSjQU-mbcuw32wQxp6-7" value="agv模擬" style="rounded=1;whiteSpace=wrap;html=1;fontSize=24;" vertex="1" parent="1">
          <mxGeometry x="530" y="360" width="230" height="60" as="geometry" />
        </mxCell>
        <mxCell id="_cTSjQU-mbcuw32wQxp6-8" value="" style="endArrow=classic;html=1;rounded=0;fontSize=24;exitX=1;exitY=0.5;exitDx=0;exitDy=0;entryX=0;entryY=0.5;entryDx=0;entryDy=0;" edge="1" parent="1" source="_cTSjQU-mbcuw32wQxp6-2" target="_cTSjQU-mbcuw32wQxp6-4">
          <mxGeometry width="50" height="50" relative="1" as="geometry">
            <mxPoint x="390" y="450" as="sourcePoint" />
            <mxPoint x="440" y="400" as="targetPoint" />
          </mxGeometry>
        </mxCell>
        <mxCell id="_cTSjQU-mbcuw32wQxp6-9" value="多個agv各自調度&lt;br&gt;（任務沒有交集）" style="rounded=1;whiteSpace=wrap;html=1;fontSize=24;" vertex="1" parent="1">
          <mxGeometry x="90" y="415" width="260" height="60" as="geometry" />
        </mxCell>
        <mxCell id="_cTSjQU-mbcuw32wQxp6-10" value="" style="endArrow=classic;html=1;rounded=0;fontSize=24;exitX=0;exitY=0.5;exitDx=0;exitDy=0;entryX=1;entryY=0.5;entryDx=0;entryDy=0;" edge="1" parent="1" source="_cTSjQU-mbcuw32wQxp6-4" target="_cTSjQU-mbcuw32wQxp6-9">
          <mxGeometry width="50" height="50" relative="1" as="geometry">
            <mxPoint x="390" y="450" as="sourcePoint" />
            <mxPoint x="440" y="400" as="targetPoint" />
          </mxGeometry>
        </mxCell>
        <mxCell id="_cTSjQU-mbcuw32wQxp6-11" value="" style="endArrow=classic;html=1;rounded=0;fontSize=24;exitX=0.577;exitY=1;exitDx=0;exitDy=0;exitPerimeter=0;entryX=0;entryY=0.75;entryDx=0;entryDy=0;" edge="1" parent="1" source="_cTSjQU-mbcuw32wQxp6-9" target="_cTSjQU-mbcuw32wQxp6-4">
          <mxGeometry width="50" height="50" relative="1" as="geometry">
            <mxPoint x="390" y="610" as="sourcePoint" />
            <mxPoint x="440" y="560" as="targetPoint" />
          </mxGeometry>
        </mxCell>
        <mxCell id="_cTSjQU-mbcuw32wQxp6-12" value="" style="endArrow=classic;html=1;rounded=0;fontSize=24;" edge="1" parent="1" target="_cTSjQU-mbcuw32wQxp6-13">
          <mxGeometry width="50" height="50" relative="1" as="geometry">
            <mxPoint x="480" y="580" as="sourcePoint" />
            <mxPoint x="360" y="680" as="targetPoint" />
          </mxGeometry>
        </mxCell>
        <mxCell id="_cTSjQU-mbcuw32wQxp6-13" value="多個agv交互調度&lt;br&gt;（任務有交集or路徑有重疊）" style="rounded=1;whiteSpace=wrap;html=1;fontSize=24;" vertex="1" parent="1">
          <mxGeometry x="75" y="650" width="325" height="60" as="geometry" />
        </mxCell>
      </root>
    </mxGraphModel>
  </diagram>
</mxfile>
